<?xml version="1.0" encoding="utf-8"?>
<!-- Generator: Adobe Illustrator 26.0.1, SVG Export Plug-In . SVG Version: 6.00 Build 0)  -->
<svg version="1.1" xmlns="http://www.w3.org/2000/svg" xmlns:xlink="http://www.w3.org/1999/xlink" x="0px" y="0px"
	 viewBox="0 0 500 500" style="enable-background:new 0 0 500 500;" xml:space="preserve">
<style type="text/css">
	.st0{fill:url(#XMLID_00000090293444162819336360000012423223274792028592_);}
	.st1{clip-path:url(#XMLID_00000155843350152822493160000011036215823837198986_);}
	.st2{opacity:0.5;}
	.st3{opacity:0.1;fill:#FFFFFF;}
	.st4{fill:#FFFFFF;}
	.st5{fill:#B5080C;}
	.st6{fill:url(#XMLID_00000128485651985632874240000010071714752690565007_);}
	.st7{fill:url(#XMLID_00000065772565838117506110000008244985749316667022_);}
</style>
<g id="BACKGROUND">
	<g id="XMLID_30_">
		<g>
			
				<radialGradient id="XMLID_00000039091823526181754960000001330467592326993545_" cx="250" cy="250" r="250" gradientUnits="userSpaceOnUse">
				<stop  offset="0" style="stop-color:#265AA8"/>
				<stop  offset="1" style="stop-color:#0F2C56"/>
			</radialGradient>
			<rect id="XMLID_72_" style="fill:url(#XMLID_00000039091823526181754960000001330467592326993545_);" width="500" height="500"/>
		</g>
	</g>
	<g id="Layer_2">
	</g>
</g>
<g id="OBJECTS">
	<g id="XMLID_32_">
		<defs>
			<rect id="XMLID_33_" width="500" height="500"/>
		</defs>
		<clipPath id="XMLID_00000137847050284367392850000017980641357252087474_">
			<use xlink:href="#XMLID_33_"  style="overflow:visible;"/>
		</clipPath>
		<g id="XMLID_34_" style="clip-path:url(#XMLID_00000137847050284367392850000017980641357252087474_);">
			<g id="XMLID_354_" class="st2">
				<g id="XMLID_63_">
					<polygon id="XMLID_164_" class="st3" points="8.6,-105.4 15.6,-84 38.1,-84 19.9,-70.5 26.9,-49 8.6,-62.2 -9.6,-48.9 
						-2.6,-70.6 -20.8,-84 1.7,-84 					"/>
					<polygon id="XMLID_347_" class="st3" points="105,-105.4 111.9,-84 134.5,-84 116.2,-70.5 123.2,-49 105,-62.2 86.8,-48.9 
						93.7,-70.6 75.5,-84 98,-84 					"/>
					<polygon id="XMLID_348_" class="st3" points="201.3,-105.4 208.3,-84 230.8,-84 212.6,-70.5 219.5,-49 201.3,-62.2 
						183.1,-48.9 190.1,-70.6 171.9,-84 194.4,-84 					"/>
					<polygon id="XMLID_350_" class="st3" points="297.7,-105.4 304.6,-84 327.1,-84 308.9,-70.5 315.9,-49 297.7,-62.2 
						279.5,-48.9 286.4,-70.6 268.2,-84 290.7,-84 					"/>
					<polygon id="XMLID_351_" class="st3" points="394,-105.4 401,-84 423.5,-84 405.3,-70.5 412.2,-49 394,-62.2 375.8,-48.9 
						382.8,-70.6 364.5,-84 387.1,-84 					"/>
					<polygon id="XMLID_353_" class="st3" points="490.4,-105.4 497.3,-84 519.8,-84 501.6,-70.5 508.6,-49 490.4,-62.2 
						472.1,-48.9 479.1,-70.6 460.9,-84 483.4,-84 					"/>
				</g>
				<g id="XMLID_355_">
					<polygon id="XMLID_369_" class="st3" points="8.6,-27.4 15.6,-6 38.1,-6 19.9,7.1 26.9,28.4 8.6,15.2 -9.6,28.4 -2.6,7.1 
						-20.8,-6 1.7,-6 					"/>
					<polygon id="XMLID_368_" class="st3" points="105,-27.4 111.9,-6 134.5,-6 116.2,7.1 123.2,28.4 105,15.2 86.8,28.4 93.7,7.1 
						75.5,-6 98,-6 					"/>
					<polygon id="XMLID_363_" class="st3" points="201.3,-27.4 208.3,-6 230.8,-6 212.6,7.1 219.5,28.4 201.3,15.2 183.1,28.4 
						190.1,7.1 171.9,-6 194.4,-6 					"/>
					<polygon id="XMLID_361_" class="st3" points="297.7,-27.4 304.6,-6 327.1,-6 308.9,7.1 315.9,28.4 297.7,15.2 279.5,28.4 
						286.4,7.1 268.2,-6 290.7,-6 					"/>
					<polygon id="XMLID_359_" class="st3" points="394,-27.4 401,-6 423.5,-6 405.3,7.1 412.2,28.4 394,15.2 375.8,28.4 382.8,7.1 
						364.5,-6 387.1,-6 					"/>
					<polygon id="XMLID_358_" class="st3" points="490.4,-27.4 497.3,-6 519.8,-6 501.6,7.1 508.6,28.4 490.4,15.2 472.1,28.4 
						479.1,7.1 460.9,-6 483.4,-6 					"/>
				</g>
				<g id="XMLID_370_">
					<polygon id="XMLID_377_" class="st3" points="8.6,49.6 15.6,71 38.1,71 19.9,84.2 26.9,105.7 8.6,92.4 -9.6,105.7 -2.6,84.2 
						-20.8,71 1.7,71 					"/>
					<polygon id="XMLID_376_" class="st3" points="105,49.6 111.9,71 134.5,71 116.2,84.2 123.2,105.7 105,92.4 86.8,105.7 
						93.7,84.2 75.5,71 98,71 					"/>
					<polygon id="XMLID_375_" class="st3" points="201.3,49.6 208.3,71 230.8,71 212.6,84.2 219.5,105.7 201.3,92.4 183.1,105.7 
						190.1,84.2 171.9,71 194.4,71 					"/>
					<polygon id="XMLID_373_" class="st3" points="297.7,49.6 304.6,71 327.1,71 308.9,84.2 315.9,105.7 297.7,92.4 279.5,105.7 
						286.4,84.2 268.2,71 290.7,71 					"/>
					<polygon id="XMLID_372_" class="st3" points="394,49.6 401,71 423.5,71 405.3,84.2 412.2,105.7 394,92.4 375.8,105.7 
						382.8,84.2 364.5,71 387.1,71 					"/>
					<polygon id="XMLID_371_" class="st3" points="490.4,49.6 497.3,71 519.8,71 501.6,84.2 508.6,105.7 490.4,92.4 472.1,105.7 
						479.1,84.2 460.9,71 483.4,71 					"/>
				</g>
				<g id="XMLID_378_">
					<polygon id="XMLID_391_" class="st3" points="8.6,126.6 15.6,148 38.1,148 19.9,161.4 26.9,182.9 8.6,169.7 -9.6,182.9 
						-2.6,161.4 -20.8,148 1.7,148 					"/>
					<polygon id="XMLID_390_" class="st3" points="105,126.6 111.9,148 134.5,148 116.2,161.4 123.2,182.9 105,169.7 86.8,182.9 
						93.7,161.4 75.5,148 98,148 					"/>
					<polygon id="XMLID_389_" class="st3" points="201.3,126.6 208.3,148 230.8,148 212.6,161.4 219.5,182.9 201.3,169.7 
						183.1,182.9 190.1,161.4 171.9,148 194.4,148 					"/>
					<polygon id="XMLID_381_" class="st3" points="297.7,126.6 304.6,148 327.1,148 308.9,161.4 315.9,182.9 297.7,169.7 
						279.5,182.9 286.4,161.4 268.2,148 290.7,148 					"/>
					<polygon id="XMLID_380_" class="st3" points="394,126.6 401,148 423.5,148 405.3,161.4 412.2,182.9 394,169.7 375.8,182.9 
						382.8,161.4 364.5,148 387.1,148 					"/>
					<polygon id="XMLID_379_" class="st3" points="490.4,126.6 497.3,148 519.8,148 501.6,161.4 508.6,182.9 490.4,169.7 
						472.1,182.9 479.1,161.4 460.9,148 483.4,148 					"/>
				</g>
				<g id="XMLID_392_">
					<polygon id="XMLID_398_" class="st3" points="8.6,204.6 15.6,226 38.1,226 19.9,239 26.9,260.3 8.6,247.1 -9.6,260.3 -2.6,239 
						-20.8,226 1.7,226 					"/>
					<polygon id="XMLID_397_" class="st3" points="105,204.6 111.9,226 134.5,226 116.2,239 123.2,260.3 105,247.1 86.8,260.3 
						93.7,239 75.5,226 98,226 					"/>
					<polygon id="XMLID_396_" class="st3" points="201.3,204.6 208.3,226 230.8,226 212.6,239 219.5,260.3 201.3,247.1 183.1,260.3 
						190.1,239 171.9,226 194.4,226 					"/>
					<polygon id="XMLID_395_" class="st3" points="297.7,204.6 304.6,226 327.1,226 308.9,239 315.9,260.3 297.7,247.1 279.5,260.3 
						286.4,239 268.2,226 290.7,226 					"/>
					<polygon id="XMLID_394_" class="st3" points="394,204.6 401,226 423.5,226 405.3,239 412.2,260.3 394,247.1 375.8,260.3 
						382.8,239 364.5,226 387.1,226 					"/>
					<polygon id="XMLID_393_" class="st3" points="490.4,204.6 497.3,226 519.8,226 501.6,239 508.6,260.3 490.4,247.1 472.1,260.3 
						479.1,239 460.9,226 483.4,226 					"/>
				</g>
				<g id="XMLID_399_">
					<polygon id="XMLID_405_" class="st3" points="8.6,281.6 15.6,303 38.1,303 19.9,316.2 26.9,337.6 8.6,324.3 -9.6,337.5 
						-2.6,316.2 -20.8,303 1.7,303 					"/>
					<polygon id="XMLID_404_" class="st3" points="105,281.6 111.9,303 134.5,303 116.2,316.2 123.2,337.6 105,324.3 86.8,337.5 
						93.7,316.2 75.5,303 98,303 					"/>
					<polygon id="XMLID_403_" class="st3" points="201.3,281.6 208.3,303 230.8,303 212.6,316.2 219.5,337.6 201.3,324.3 
						183.1,337.5 190.1,316.2 171.9,303 194.4,303 					"/>
					<polygon id="XMLID_402_" class="st3" points="297.7,281.6 304.6,303 327.1,303 308.9,316.2 315.9,337.6 297.7,324.3 
						279.5,337.5 286.4,316.2 268.2,303 290.7,303 					"/>
					<polygon id="XMLID_401_" class="st3" points="394,281.6 401,303 423.5,303 405.3,316.2 412.2,337.6 394,324.3 375.8,337.5 
						382.8,316.2 364.5,303 387.1,303 					"/>
					<polygon id="XMLID_400_" class="st3" points="490.4,281.6 497.3,303 519.8,303 501.6,316.2 508.6,337.6 490.4,324.3 
						472.1,337.5 479.1,316.2 460.9,303 483.4,303 					"/>
				</g>
				<g id="XMLID_406_">
					<polygon id="XMLID_414_" class="st3" points="8.6,358.6 15.6,380 38.1,380 19.9,393.3 26.9,414.8 8.6,401.6 -9.6,414.8 
						-2.6,393.3 -20.8,380 1.7,380 					"/>
					<polygon id="XMLID_413_" class="st3" points="105,358.6 111.9,380 134.5,380 116.2,393.3 123.2,414.8 105,401.6 86.8,414.8 
						93.7,393.3 75.5,380 98,380 					"/>
					<polygon id="XMLID_412_" class="st3" points="201.3,358.6 208.3,380 230.8,380 212.6,393.3 219.5,414.8 201.3,401.6 
						183.1,414.8 190.1,393.3 171.9,380 194.4,380 					"/>
					<polygon id="XMLID_410_" class="st3" points="297.7,358.6 304.6,380 327.1,380 308.9,393.3 315.9,414.8 297.7,401.6 
						279.5,414.8 286.4,393.3 268.2,380 290.7,380 					"/>
					<polygon id="XMLID_408_" class="st3" points="394,358.6 401,380 423.5,380 405.3,393.3 412.2,414.8 394,401.6 375.8,414.8 
						382.8,393.3 364.5,380 387.1,380 					"/>
					<polygon id="XMLID_407_" class="st3" points="490.4,358.6 497.3,380 519.8,380 501.6,393.3 508.6,414.8 490.4,401.6 
						472.1,414.8 479.1,393.3 460.9,380 483.4,380 					"/>
				</g>
				<g id="XMLID_415_">
					<polygon id="XMLID_421_" class="st3" points="8.6,435.6 15.6,457 38.1,457 19.9,470.5 26.9,492 8.6,478.8 -9.6,492.1 
						-2.6,470.4 -20.8,457 1.7,457 					"/>
					<polygon id="XMLID_420_" class="st3" points="105,435.6 111.9,457 134.5,457 116.2,470.5 123.2,492 105,478.8 86.8,492.1 
						93.7,470.4 75.5,457 98,457 					"/>
					<polygon id="XMLID_419_" class="st3" points="201.3,435.6 208.3,457 230.8,457 212.6,470.5 219.5,492 201.3,478.8 183.1,492.1 
						190.1,470.4 171.9,457 194.4,457 					"/>
					<polygon id="XMLID_418_" class="st3" points="297.7,435.6 304.6,457 327.1,457 308.9,470.5 315.9,492 297.7,478.8 279.5,492.1 
						286.4,470.4 268.2,457 290.7,457 					"/>
					<polygon id="XMLID_417_" class="st3" points="394,435.6 401,457 423.5,457 405.3,470.5 412.2,492 394,478.8 375.8,492.1 
						382.8,470.4 364.5,457 387.1,457 					"/>
					<polygon id="XMLID_416_" class="st3" points="490.4,435.6 497.3,457 519.8,457 501.6,470.5 508.6,492 490.4,478.8 472.1,492.1 
						479.1,470.4 460.9,457 483.4,457 					"/>
				</g>
				<g id="XMLID_422_">
					<polygon id="XMLID_428_" class="st3" points="8.6,513.6 15.6,535 38.1,535 19.9,548.1 26.9,569.5 8.6,556.2 -9.6,569.4 
						-2.6,548.1 -20.8,535 1.7,535 					"/>
					<polygon id="XMLID_427_" class="st3" points="105,513.6 111.9,535 134.5,535 116.2,548.1 123.2,569.5 105,556.2 86.8,569.4 
						93.7,548.1 75.5,535 98,535 					"/>
					<polygon id="XMLID_426_" class="st3" points="201.3,513.6 208.3,535 230.8,535 212.6,548.1 219.5,569.5 201.3,556.2 
						183.1,569.4 190.1,548.1 171.9,535 194.4,535 					"/>
					<polygon id="XMLID_425_" class="st3" points="297.7,513.6 304.6,535 327.1,535 308.9,548.1 315.9,569.5 297.7,556.2 
						279.5,569.4 286.4,548.1 268.2,535 290.7,535 					"/>
					<polygon id="XMLID_424_" class="st3" points="394,513.6 401,535 423.5,535 405.3,548.1 412.2,569.5 394,556.2 375.8,569.4 
						382.8,548.1 364.5,535 387.1,535 					"/>
					<polygon id="XMLID_423_" class="st3" points="490.4,513.6 497.3,535 519.8,535 501.6,548.1 508.6,569.5 490.4,556.2 
						472.1,569.4 479.1,548.1 460.9,535 483.4,535 					"/>
				</g>
			</g>
			<g id="XMLID_165_">
				<path id="XMLID_62_" class="st4" d="M166.6-284.1C169.2-47.6,516.3-226.5,518.9,10c-2,91-3.9,182.1-5.9,273.1
					C507.3-127-97.7,185.7-103.4-224.4C-13.4-244.3,76.6-264.2,166.6-284.1z"/>
				<g id="XMLID_166_">
					<path id="XMLID_61_" class="st5" d="M-62.9-233.3c5.3,384,571.5,91.4,576.9,475.5c-0.2,9.1-0.4,18.2-0.6,27.3
						C507.7-132-84.3,174-89.9-227.4C-80.9-229.4-71.9-231.4-62.9-233.3z"/>
					<path id="XMLID_60_" class="st5" d="M-8.9-245.3c4.7,349.3,519.3,83.5,524,432.8c-0.2,9.1-0.4,18.2-0.6,27.3
						c-5-366.7-545.4-87.5-550.4-454.1C-26.9-241.3-17.9-243.3-8.9-245.3z"/>
					<path id="XMLID_306_" class="st5" d="M45.1-257.2c4.1,314.6,467.2,75.5,471.2,390.1c-0.2,9.1-0.4,18.2-0.6,27.3
						c-4.4-332-493.2-79.5-497.6-411.5C27.1-253.2,36.1-255.2,45.1-257.2z"/>
					<path id="XMLID_301_" class="st5" d="M99-269.2c3.4,279.9,415,67.6,418.4,347.5c-0.2,9.1-0.4,18.2-0.6,27.3
						C513.1-191.7,75.8,34.1,72-263.2C81-265.2,90-267.2,99-269.2z"/>
					<path id="XMLID_259_" class="st5" d="M153-281.1c2.8,245.2,362.8,59.6,365.6,304.8c-0.2,9.1-0.4,18.2-0.6,27.3
						c-3.1-262.6-388.9-63.6-392-326.2C135-277.1,144-279.1,153-281.1z"/>
				</g>
				
					<linearGradient id="XMLID_00000078736440745854121640000015922471174388533424_" gradientUnits="userSpaceOnUse" x1="-37.7064" y1="-247.3514" x2="613.2932" y2="195.649">
					<stop  offset="0" style="stop-color:#FFFFFF;stop-opacity:0"/>
					<stop  offset="0.6404" style="stop-color:#FFFFFF;stop-opacity:0.6"/>
					<stop  offset="0.7923" style="stop-color:#FFFFFF;stop-opacity:0"/>
				</linearGradient>
				<path id="XMLID_147_" style="fill:url(#XMLID_00000078736440745854121640000015922471174388533424_);" d="M166.6-284.1
					C169.2-47.6,516.3-226.5,518.9,10c-2,91-3.9,182.1-5.9,273.1C507.3-127-97.7,185.7-103.4-224.4
					C-13.4-244.3,76.6-264.2,166.6-284.1z"/>
			</g>
			<g id="XMLID_440_">
				<path id="XMLID_456_" class="st4" d="M326,773.9c-2.7-236.5-349.7-57.6-352.4-294.1c2-91,3.9-182.1,5.9-273.1
					c5.8,410.1,610.7,97.4,616.5,507.5C506,734.1,416,754,326,773.9z"/>
				<g id="XMLID_444_">
					<path id="XMLID_449_" class="st5" d="M555.5,723.1c-5.3-384-571.5-91.4-576.9-475.5c0.2-9.1,0.4-18.2,0.6-27.3
						c5.6,401.4,597.6,95.4,603.3,496.8C573.4,719.2,564.4,721.1,555.5,723.1z"/>
					<path id="XMLID_448_" class="st5" d="M501.5,735.1c-4.7-349.3-519.3-83.5-524-432.8c0.2-9.1,0.4-18.2,0.6-27.3
						c5,366.7,545.4,87.5,550.4,454.1C519.5,731.1,510.5,733.1,501.5,735.1z"/>
					<path id="XMLID_447_" class="st5" d="M447.5,747c-4.1-314.6-467.2-75.5-471.2-390.1c0.2-9.1,0.4-18.2,0.6-27.3
						c4.4,332,493.2,79.5,497.6,411.5C465.5,743,456.5,745,447.5,747z"/>
					<path id="XMLID_446_" class="st5" d="M393.5,759C390,479-21.5,691.4-24.9,411.5c0.2-9.1,0.4-18.2,0.6-27.3
						c3.8,297.3,441.1,71.5,444.8,368.8C411.5,755,402.5,757,393.5,759z"/>
					<path id="XMLID_445_" class="st5" d="M339.5,770.9c-2.8-245.2-362.8-59.6-365.6-304.8c0.2-9.1,0.4-18.2,0.6-27.3
						c3.1,262.6,388.9,63.6,392,326.2C357.5,766.9,348.5,768.9,339.5,770.9z"/>
				</g>
				
					<linearGradient id="XMLID_00000093889517563217046110000011817360731117225621_" gradientUnits="userSpaceOnUse" x1="1724.6229" y1="-687.1969" x2="2375.6226" y2="-244.1965" gradientTransform="matrix(-1 0 0 -1 2254.8638 49.9425)">
					<stop  offset="0" style="stop-color:#FFFFFF;stop-opacity:0"/>
					<stop  offset="0.6404" style="stop-color:#FFFFFF;stop-opacity:0.6"/>
					<stop  offset="0.7923" style="stop-color:#FFFFFF;stop-opacity:0"/>
				</linearGradient>
				<path id="XMLID_443_" style="fill:url(#XMLID_00000093889517563217046110000011817360731117225621_);" d="M326,773.9
					c-2.7-236.5-349.7-57.6-352.4-294.1c2-91,3.9-182.1,5.9-273.1c5.8,410.1,610.7,97.4,616.5,507.5C506,734.1,416,754,326,773.9z"
					/>
			</g>
		</g>
	</g>
</g>
<g id="DESIGNED_BY_FREEPIK">
</g>
</svg>
